<svg xmlns="http://www.w3.org/2000/svg" viewBox="0 0 100 100" fill="none">
  <rect width="100" height="100" rx="50" fill="#EC4899"/>
  <circle cx="50" cy="40" r="18" fill="#FED7AA"/>
  <path d="M30 36C30 25 38 18 50 18C62 18 70 25 70 36C70 42 66 48 66 48L34 48C34 48 30 42 30 36Z" fill="#831843"/>
  <path d="M22 86C22 70.536 34.536 58 50 58C65.464 58 78 70.536 78 86" fill="#BE185D"/>
  <circle cx="44" cy="40" r="2" fill="#831843"/>
  <circle cx="56" cy="40" r="2" fill="#831843"/>
  <path d="M46 47C48 49 52 49 54 47" stroke="#831843" stroke-width="2" stroke-linecap="round"/>
</svg>
